<svg version="1.1" id="Layer_1" xmlns="http://www.w3.org/2000/svg" xmlns:xlink="http://www.w3.org/1999/xlink" x="0px" y="0px"
	 width="100%" viewBox="0 0 560 704" enable-background="new 0 0 560 704" xml:space="preserve">
<path fill="#000000" opacity="1.000000" stroke="none" 
	d="
M561.000000,96.000000 
	C561.000000,287.689301 561.000000,479.378571 560.723877,671.506714 
	C559.820801,672.118225 558.856445,672.090454 558.617004,672.493408 
	C554.315063,679.732300 546.537048,680.639771 539.600708,683.148926 
	C534.930176,684.838440 530.671509,688.077454 525.519592,687.921814 
	C512.222534,687.519897 498.760315,688.465820 485.694031,685.663269 
	C469.587555,682.208618 454.134094,683.981445 439.161407,689.999084 
	C433.114441,692.429443 426.681610,694.912354 422.493988,700.513062 
	C421.413513,701.958069 419.584717,703.883972 423.000000,705.000000 
	C312.644043,705.000000 202.288055,705.000000 91.439392,704.737915 
	C86.350578,696.302979 81.291687,689.017822 71.661316,685.487976 
	C65.738815,683.317200 59.363518,681.157532 54.625065,676.419922 
	C49.759064,671.554688 44.546776,667.389343 37.624199,665.648132 
	C34.952682,664.976196 31.845436,663.832092 30.149488,661.860107 
	C21.935825,652.309692 11.816664,658.884277 2.599372,658.195740 
	C2.113886,658.159424 1.535262,659.369934 0.999999,660.000000 
	C1.000000,489.310699 1.000000,318.621368 1.175574,147.694885 
	C2.090476,149.160141 2.822771,150.523941 4.918937,148.688736 
	C7.157866,146.728561 10.096066,146.229553 12.877792,146.206741 
	C19.199696,146.154907 22.991182,142.440826 26.049622,137.659714 
	C27.564093,135.292206 28.659578,132.644699 29.832689,130.072815 
	C35.898266,116.774918 44.766220,105.804840 58.295742,99.913063 
	C68.325584,95.545296 75.741249,88.639313 82.307854,80.378166 
	C90.818489,69.671303 99.581741,59.309200 111.760338,52.392033 
	C123.183777,45.903778 135.721771,42.466213 148.093796,38.635513 
	C159.021225,35.252090 169.891907,31.034470 181.671524,31.874540 
	C202.443283,33.355900 221.414291,24.792324 241.302673,21.364056 
	C241.625580,21.308393 241.930542,21.146685 242.242889,21.031807 
	C245.276733,19.915964 246.526245,17.643351 245.385376,14.724688 
	C243.979813,11.128837 244.559036,7.859565 246.130417,4.639794 
	C246.788971,3.290416 247.045441,2.181480 246.000000,1.000000 
	C268.355988,1.000000 290.711945,1.000000 313.322693,1.129444 
	C312.984161,1.742486 311.950653,1.809746 312.021973,3.379732 
	C317.111145,4.833096 320.051178,8.693743 322.897797,13.250811 
	C325.039185,16.678942 328.339294,20.103188 332.978302,20.760160 
	C347.475311,22.813217 361.954803,25.167269 376.689056,23.025427 
	C381.953888,22.260107 387.264954,21.589394 392.573914,21.395851 
	C405.684875,20.917871 418.478271,22.211004 430.113251,29.158083 
	C433.257141,31.035246 436.742920,32.284512 440.347900,33.041679 
	C446.740814,34.384422 452.744720,36.846237 458.762360,39.281639 
	C460.790283,40.102360 462.673370,41.088573 463.983459,42.959198 
	C470.342041,52.038448 479.500000,57.685577 489.424683,61.522175 
	C496.815552,64.379265 502.281464,68.624557 506.723877,74.922928 
	C510.113525,79.728683 513.847778,80.131569 518.785400,76.936325 
	C525.120789,72.836548 530.317810,72.925293 535.216919,78.504868 
	C542.364014,86.644562 551.500793,91.508919 561.000000,96.000000 
M222.392670,564.895996 
	C227.778931,567.758118 233.846802,568.041443 239.615524,569.460815 
	C249.065582,571.785950 258.772095,574.073547 268.323944,573.907654 
	C287.575500,573.573181 306.932770,575.184265 326.100861,570.914062 
	C339.210968,567.993408 352.291382,565.010071 364.762024,560.168518 
	C373.483368,556.782593 381.976593,552.700378 390.316986,548.218323 
	C406.500793,539.521362 420.912994,528.580933 434.699310,516.674133 
	C446.417938,506.553070 456.018036,494.532593 464.982941,481.974945 
	C474.625397,468.468262 482.899597,454.216431 488.953430,438.721130 
	C493.780701,426.365234 498.110352,413.858765 500.540588,400.777893 
	C502.545441,389.986786 505.527252,379.280762 504.949097,368.188934 
	C504.175476,353.345978 506.452362,338.402893 503.127655,323.632660 
	C501.179016,314.975647 500.840698,305.842010 498.016327,297.520721 
	C492.552246,281.422241 487.386993,265.227386 478.856354,250.189011 
	C471.110138,236.533554 462.066010,223.879883 452.289276,211.844986 
	C444.431519,202.172302 435.110321,193.683350 425.229614,185.746216 
	C403.383698,168.197495 379.607513,154.706543 352.835754,146.272964 
	C336.978027,141.277466 320.847992,137.409393 304.359161,136.542023 
	C290.305054,135.802719 276.101959,135.456284 261.989746,137.173355 
	C249.315445,138.715469 236.791321,140.923447 224.586121,144.692307 
	C209.363403,149.392929 194.539246,154.939484 180.513794,162.751602 
	C166.390320,170.618317 153.537659,180.121277 141.071503,190.266678 
	C131.159958,198.333054 122.708282,207.797104 114.842773,217.809036 
	C104.589645,230.860168 95.083290,244.483932 88.027298,259.498199 
	C83.825989,268.438049 80.282669,277.750946 77.201477,287.246033 
	C72.686897,301.158295 69.179115,315.329803 67.979851,329.755585 
	C66.168503,351.543976 66.088463,373.415649 70.299454,395.118378 
	C74.996384,419.325470 82.830917,442.434143 95.073181,463.765259 
	C102.938171,477.469299 112.230606,490.329651 122.889534,502.196045 
	C135.815689,516.586548 150.578827,528.712830 166.503906,539.468567 
	C175.971268,545.862793 186.065186,551.126160 196.671570,555.628418 
	C204.922318,559.130737 213.157379,562.404602 222.392670,564.895996 
z"/>
<path fill="#000000" opacity="1.000000" stroke="none" 
	d="
M326.493774,194.416672 
	C335.105774,190.684860 343.027222,191.199448 350.722382,195.937042 
	C352.979736,197.326813 355.418915,198.470016 357.877533,199.474869 
	C364.846954,202.323380 369.589081,206.852737 370.578491,214.738754 
	C370.816498,216.635452 371.721954,218.673462 372.908325,220.185120 
	C376.928406,225.307404 377.171722,230.695663 375.163177,236.653519 
	C373.893219,240.420441 373.302612,244.411423 372.289124,248.270874 
	C370.561981,254.848038 367.461121,258.052063 360.704437,257.754791 
	C349.450134,257.259644 338.052612,256.579620 327.707184,251.265610 
	C319.118134,246.853806 309.366119,245.319061 301.108765,239.974976 
	C296.210144,236.804642 292.676849,232.495712 288.970642,228.259354 
	C287.105164,226.127014 287.045135,223.660843 288.963898,221.445297 
	C291.183380,218.882462 292.557770,215.881836 293.918701,212.830917 
	C295.612701,209.033188 298.666687,206.596222 302.209656,204.501602 
	C309.730225,200.055420 317.959076,197.407471 326.493774,194.416672 
z"/>
</svg>